:SAMPLES-PER-SECOND 30
:FULLY-SPECIFIED
:DEGREES
1
root  -92.1726 38.252 1.49872 169.297 80.1733 169.024
RightUpLeg  -27.6412 -0.688069 -4.63327
RightLeg  -3.70943 1.91981 1.36791
RightFoot  -0.484864 -0.639876 5.74624
RightToes  1.86264e-009 -3.18055e-015 8.94531e-016
Spine  -5.87355 -7.48339 -16.1036
Spine1  20.3211 -12.3444 14.6757
HEad  -21.9351 2.7385 1.45122
LeftShoulder1  0 -2.69403e-036 -1.28585e-037
LeftArm  8.1768 4.41808 -79.2532
LeftForeArm  -35.0719 -43.4731 25.7764
LeftHand  0.967397 7.06549 -0.296347
RightShoulder  -2.48481e-017 0 -8.08114e-019
RightArm  1.51707 -51.9489 75.3204
RightForeArm  -17.3245 13.6364 1.11426
RightHand  1.26849 -11.7698 -2.3869
LeftUpLeg  11.1881 -11.1171 -3.36434
LeftLeg  16.8566 -6.37789 1.62083
LeftFoot  -14.5294 -0.0933842 -5.04616
LeftToes  -3.27418e-010 -1.10613e-010 -1.08532e-012
2
root  -90.6402 37.9044 1.62823 174.496 80.3951 174.031
RightUpLeg  -29.4606 -0.166873 -3.54117
RightLeg  1.36144 -0.424521 0.651086
RightFoot  1.46052 -0.615139 4.80941
RightToes  1.86264e-009 -3.18055e-015 8.94531e-016
Spine  -6.14991 -7.69449 -14.9192
Spine1  20.8897 -12.7521 14.8577
HEad  -23.1316 5.03919 0.660498
LeftShoulder1  0 -2.69403e-036 -1.28585e-037
LeftArm  6.83161 4.93881 -79.2512
LeftForeArm  -34.9563 -42.9805 25.493
LeftHand  0.990213 7.23265 -0.762357
RightShoulder  -2.48481e-017 0 -8.08114e-019
RightArm  3.64359 -52.6445 74.4402
RightForeArm  -18.837 14.0836 0.736979
RightHand  1.29143 -11.8815 -2.57993
LeftUpLeg  12.4782 -11.4562 -1.68245
LeftLeg  18.6059 -6.22137 1.07607
LeftFoot  -14.4723 -0.114653 -7.0239
LeftToes  -3.27418e-010 -1.10613e-010 -1.08532e-012
3
root  -88.4851 37.3396 1.80864 -175.327 80.1921 -175.69
RightUpLeg  -32.0397 -1.12054 -0.521371
RightLeg  10.5093 0.077147 -1.07632
RightFoot  5.79258 -0.51488 3.12752
RightToes  1.86264e-009 -3.18055e-015 8.94531e-016
Spine  -5.66846 -7.95446 -12.557
Spine1  21.1032 -13.2581 15.0954
HEad  -22.9195 5.35058 -0.0925683
LeftShoulder1  0 -2.69403e-036 -1.28585e-037
LeftArm  5.17481 6.79041 -79.7834
LeftForeArm  -34.9958 -41.9803 24.9188
LeftHand  1.02284 7.4712 -1.05611
RightShoulder  -2.48481e-017 0 -8.08114e-019
RightArm  6.0793 -53.0352 73.4427
RightForeArm  -20.5845 14.5447 0.348494
RightHand  1.32126 -12.0647 -2.72779
LeftUpLeg  13.3578 -9.83431 2.19141
LeftLeg  22.8762 -8.07243 0.336213
LeftFoot  -13.2769 -0.0168634 -10.504
LeftToes  -3.27418e-010 -1.10613e-010 -1.08532e-012
4
root  -86.5074 36.735 1.99415 -165.347 79.515 -164.947
RightUpLeg  -34.1196 -3.73312 3.31265
RightLeg  20.2075 4.17588 -1.93319
RightFoot  8.36646 -0.056729 0.31047
RightToes  1.86264e-009 -3.18055e-015 8.94531e-016
Spine  -3.25071 -7.84241 -10.0146
Spine1  20.3281 -13.4017 15.5962
HEad  -22.7628 4.90259 -0.186934
LeftShoulder1  0 -2.69403e-036 -1.28585e-037
LeftArm  4.61837 9.13389 -81.1155
LeftForeArm  -34.9405 -39.8277 23.7499
LeftHand  0.986595 7.22517 0.0330678
RightShoulder  -2.48481e-017 0 -8.08114e-019
RightArm  6.41748 -52.3739 73.1178
RightForeArm  -20.9204 14.5228 0.422988
RightHand  1.32728 -12.1497 -2.63874
LeftUpLeg  12.6151 -7.54342 6.75683
LeftLeg  30.2621 -10.2281 -0.224868
LeftFoot  -7.82645 0.59541 -12.3092
LeftToes  -3.27418e-010 -1.10613e-010 -1.08532e-012
5
root  -84.8074 36.1868 2.18537 -157.765 78.722 -156.422
RightUpLeg  -35.4543 -5.94525 6.36227
RightLeg  28.9008 7.20592 -1.47425
RightFoot  6.48884 0.608127 -3.63202
RightToes  1.86264e-009 -3.18055e-015 8.94531e-016
Spine  0.403918 -7.37199 -7.54769
Spine1  19.296 -13.0617 16.2181
HEad  -23.954 5.02866 0.455201
LeftShoulder1  0 -2.69403e-036 -1.28585e-037
LeftArm  6.33043 10.7207 -83.0309
LeftForeArm  -35.4632 -35.4504 21.5554
LeftHand  0.882371 6.57141 1.89019
RightShoulder  -2.48481e-017 0 -8.08114e-019
RightArm  3.22104 -50.5035 74.0757
RightForeArm  -19.1015 13.7768 1.14096
RightHand  1.31587 -12.0961 -2.54333
LeftUpLeg  9.59951 -6.60834 10.3244
LeftLeg  40.3136 -10.4868 0.293505
LeftFoot  2.22265 1.33597 -10.0487
LeftToes  -3.27418e-010 -1.10613e-010 -1.08532e-012
6
root  -83.3719 35.7695 2.34758 -152.656 77.9146 -150.876
RightUpLeg  -36.1655 -7.44397 8.57032
RightLeg  35.4318 8.27102 -1.2772
RightFoot  2.13786 0.894531 -6.69167
RightToes  1.86264e-009 -3.18055e-015 8.94531e-016
Spine  3.64839 -6.86868 -4.83592
Spine1  18.8578 -12.2995 16.1849
HEad  -25.6199 4.53272 1.71037
LeftShoulder1  0 -2.69403e-036 -1.28585e-037
LeftArm  12.6251 11.2659 -85.1004
LeftForeArm  -39.653 -29.2177 19.1938
LeftHand  0.82102 6.1755 2.16204
RightShoulder  -2.48481e-017 0 -8.08114e-019
RightArm  -2.01197 -47.5886 76.3411
RightForeArm  -16.7318 12.8954 1.80092
RightHand  1.32558 -12.1 -2.72641
LeftUpLeg  4.13017 -6.95078 12.2365
LeftLeg  51.2459 -9.53117 2.70265
LeftFoot  10.8719 1.38625 -6.28496
LeftToes  -3.27418e-010 -1.10613e-010 -1.08532e-012
7
root  -82.042 35.5852 2.45657 -150.525 77.3891 -148.741
RightUpLeg  -36.0695 -7.98769 9.63451
RightLeg  39.5608 8.2149 -1.63563
RightFoot  -1.7312 0.754204 -7.48358
RightToes  1.86264e-009 -3.18055e-015 8.94531e-016
Spine  6.27739 -6.28209 -2.17783
Spine1  18.4933 -11.0726 15.0081
HEad  -27.272 3.05651 3.04117
LeftShoulder1  0 -2.69403e-036 -1.28585e-037
LeftArm  12.9567 11.3117 -86.4361
LeftForeArm  -36.8075 -23.771 12.9861
LeftHand  0.848768 6.22547 -0.0699037
RightShoulder  -2.48481e-017 0 -8.08114e-019
RightArm  -4.87641 -43.9337 79.1194
RightForeArm  -17.1769 13.2501 1.20508
RightHand  1.36799 -12.2608 -3.15655
LeftUpLeg  -2.69181 -7.73267 12.4419
LeftLeg  61.0457 -9.03086 5.89029
LeftFoot  13.3436 0.883358 -3.49501
LeftToes  -3.27418e-010 -1.10613e-010 -1.08532e-012
8
root  -80.7352 35.649 2.51976 -151.11 77.5072 -149.319
RightUpLeg  -34.9274 -8.04003 9.63672
RightLeg  41.8522 8.11523 -1.92995
RightFoot  -4.59548 0.524369 -6.97463
RightToes  1.86264e-009 -3.18055e-015 8.94531e-016
Spine  9.20979 -5.45496 -0.164964
Spine1  17.5493 -9.46058 13.0491
HEad  -29.3139 1.51741 3.92895
LeftShoulder1  0 -2.69403e-036 -1.28585e-037
LeftArm  2.73291 11.7528 -86.7912
LeftForeArm  -23.358 -18.9759 4.0085
LeftHand  0.898004 6.39694 -2.52297
RightShoulder  -2.48481e-017 0 -8.08114e-019
RightArm  -1.5316 -39.6787 81.6349
RightForeArm  -22.8461 15.5006 -1.63867
RightHand  1.40994 -12.3914 -3.63156
LeftUpLeg  -9.64264 -8.27523 11.1686
LeftLeg  68.3206 -9.82264 6.81271
LeftFoot  11.1994 0.40335 -1.66435
LeftToes  -3.27418e-010 -1.10613e-010 -1.08532e-012
